<svg width="171" height="50" viewBox="0 0 171 50" fill="none" xmlns="http://www.w3.org/2000/svg">
<path d="M68.3084 41.38C68.5484 42 68.2284 42.7 67.6084 42.94C67.4684 42.98 54.4684 43.02 54.4684 43.02V39.74H65.6684L66.6884 36.5L68.3084 41.38ZM57.6284 32.28V34.34L66.6884 36.5L55.9884 37.36C55.2284 37.48 54.4884 36.96 54.3684 36.18C54.3684 36.12 54.3684 30.64 54.3684 30.64C54.3684 29.74 55.0884 29.02 55.9884 29.02L68.0484 29.06V32.34L57.6284 32.28ZM81.3036 29H84.5836V43H81.3036V36.8L78.5836 36.82L73.8436 43H70.5836V29H73.8436V43L75.7636 35.2C75.9636 34.5 76.6036 34 77.3436 34L81.3036 33.98V29ZM101.32 32.28H90.6V39.74L92.94 35.14C93.14 34.44 93.78 33.94 94.5 33.94L100.96 33.9L100.98 36.72L95.76 36.76L90.6 39.74H101.32V43H88.96C88.06 43 87.34 42.28 87.34 41.38V30.64C87.34 29.74 88.06 29 88.96 29H101.32V32.28ZM117.804 32.28H107.084V39.74L109.424 35.14C109.624 34.44 110.264 33.94 110.984 33.94L117.444 33.9L117.464 36.72L112.244 36.76L107.084 39.74H117.804V43H105.444C104.544 43 103.824 42.28 103.824 41.38V30.64C103.824 29.74 104.544 29 105.444 29H117.804V32.28ZM132.689 29C133.589 29 134.329 29.74 134.329 30.64C134.329 30.64 134.329 37.26 134.329 37.28C134.269 38.34 133.209 39.02 132.209 38.68L123.629 36.22L131.049 35.58V32.28H123.589V43H120.329V30.64C120.329 29.74 121.049 29 121.949 29H132.689ZM150.476 41.38C150.716 42 150.396 42.7 149.776 42.94C149.636 42.98 136.636 43.02 136.636 43.02V39.74H147.836L148.856 36.5L150.476 41.38ZM139.796 32.28V34.34L148.856 36.5L138.156 37.36C137.396 37.48 136.656 36.96 136.536 36.18C136.536 36.12 136.536 30.64 136.536 30.64C136.536 29.74 137.256 29.02 138.156 29.02L150.216 29.06V32.34L139.796 32.28Z" fill="white"/>
<path d="M68.4684 9.28H57.7484V16.74H68.4684V20H56.1084C55.2084 20 54.4884 19.28 54.4884 18.38V7.64C54.4884 6.74 55.2084 6 56.1084 6H68.4684V9.28ZM81.4208 6H84.7008V20H81.4208V13.8L78.7008 13.82L73.9608 20H70.7008V6H73.9608V20L75.8808 12.2C76.0808 11.5 76.7208 11 77.4608 11L81.4208 10.98V6ZM90.7772 20H87.5172V6H90.7772V20ZM107.492 9.28H96.7719V16.74H107.492V20H95.1319C94.2319 20 93.5119 19.28 93.5119 18.38V7.64C93.5119 6.74 94.2319 6 95.1319 6H107.492V9.28Z" fill="white"/>
<path d="M16.3303 37.4355L21.6603 43.0002L26.99 37.4355H16.3303Z" fill="#EFAD26"/>
<path d="M29.7217 37.4355L35.0515 43.0002L40.3814 37.4355H29.7217Z" fill="#EFAD26"/>
<path d="M31.9806 26.3193L20.9524 23.9714L16.623 34.854H43.9376V19.5624L37.2124 11.3926H26.3502L31.9806 26.3193Z" fill="#EFAD26"/>
<path d="M3.49881 13.5361L0 22.8118L6.75984 21.3727L3.49881 13.5361Z" fill="#EFAD26"/>
<path d="M24.4094 13.5459L21.1521 21.3735L27.9042 22.8109L24.4094 13.5459Z" fill="#EFAD26"/>
<path d="M9.64819 23.7539L13.9577 34.5864L18.2673 23.7539H9.64819Z" fill="#EFAD26"/>
<path d="M9.46831 21.1725H18.4408L22.838 10.6063L19.3079 6.18827L19.1574 6H8.75177L5.07129 10.6064L9.46831 21.1725Z" fill="#EFAD26"/>
</svg>
