<svg width="42" height="41" viewBox="0 0 42 41" fill="none" xmlns="http://www.w3.org/2000/svg">
<path d="M4.36566 18.7245C3.53901 18.7268 2.72991 18.9635 2.03197 19.4071C1.33402 19.8507 0.775753 20.4831 0.421749 21.2311C0.0677444 21.9792 -0.0675282 22.8123 0.031581 23.6342C0.13069 24.456 0.460131 25.233 0.981789 25.8751L12.1023 39.5168C12.4988 40.0098 13.0071 40.401 13.5849 40.6578C14.1626 40.9147 14.7933 41.0297 15.4244 40.9935C16.7742 40.9209 17.9928 40.1978 18.7698 39.0089L41.8699 1.7541C41.8737 1.74792 41.8777 1.74174 41.8817 1.73565C42.0984 1.40239 42.0282 0.741956 41.5808 0.327062C41.4579 0.213127 41.313 0.125593 41.155 0.0698515C40.9971 0.0141098 40.8294 -0.00865989 40.6623 0.00294526C40.4952 0.0145504 40.3323 0.0602847 40.1835 0.137331C40.0348 0.214377 39.9034 0.321105 39.7973 0.45094C39.7891 0.461148 39.7805 0.471202 39.7717 0.481102L16.4749 26.8399C16.3863 26.9402 16.2786 27.0218 16.1582 27.0801C16.0377 27.1384 15.9069 27.1721 15.7734 27.1794C15.6398 27.1866 15.5061 27.1672 15.3801 27.1223C15.2541 27.0773 15.1383 27.0078 15.0394 26.9176L7.30758 19.8718C6.50457 19.1347 5.45501 18.7254 4.36566 18.7245Z" fill="#EFAD26"/>
</svg>
