<svg width="30" height="30" viewBox="0 0 30 30" fill="none" xmlns="http://www.w3.org/2000/svg">
<path d="M2.84386 29.9847C2.10834 30.028 1.38499 29.7806 0.826335 29.2948C-0.275445 28.1736 -0.275445 26.3627 0.826335 25.2415L24.9517 0.835281C26.0976 -0.249499 27.8958 -0.189197 28.9681 0.970086C29.9378 2.01842 29.9943 3.62973 29.1004 4.7449L4.83294 29.2948C4.28149 29.7736 3.56974 30.0205 2.84386 29.9847Z" fill="#BBBBBB"/>
<path d="M26.9405 29.9845C26.1951 29.9813 25.4806 29.6819 24.9513 29.1508L0.825861 4.74458C-0.194881 3.53872 -0.0561055 1.72397 1.13588 0.691253C2.19976 -0.230418 3.76877 -0.230418 4.83256 0.691253L29.1001 25.0974C30.2457 26.1825 30.305 28.0017 29.2324 29.1607C29.1897 29.2068 29.1456 29.2514 29.1001 29.2946C28.5059 29.8173 27.7238 30.0671 26.9405 29.9845Z" fill="#BBBBBB"/>
</svg>
