<svg width="27" height="20" viewBox="0 0 27 20" fill="none" xmlns="http://www.w3.org/2000/svg">
<path d="M5.9486 16.0126C11.8204 18.4868 16.8174 18.9687 22.4799 15.1176C22.4384 15.1848 21.3183 16.9765 18.3727 17.8947C18.995 18.813 19.8455 19.8656 19.8455 19.8656C21.7332 19.8656 23.5794 19.2833 25.1766 18.1635C26.4212 17.2676 27.1264 15.7223 26.9812 14.1098C26.7323 11.355 26.1307 8.66742 25.1973 6.09189C24.0149 2.73245 21.1731 0.403192 17.8749 0.0672209C17.5845 0.0448139 17.3771 0.0448141 17.2526 0.0448141L16.9208 0.403125C20.7168 1.56775 22.6045 3.38185 22.6459 3.44907C16.817 0.268749 9.93024 0.224002 4.05983 3.31469C4.05983 3.31469 5.92674 1.32141 10.0546 0.26875L9.80572 0C9.37009 0 8.95521 0.0448137 8.51965 0.111968C5.47036 0.671875 2.91896 2.93391 1.81954 6.04701C0.86533 8.73458 0.243045 11.5565 0.014884 14.4233C-0.109573 15.9462 0.554218 17.4468 1.71584 18.3203C3.25083 19.4177 5.07623 20 6.9224 20C6.9224 20 7.66914 18.9473 8.41594 18.0067C5.61557 17.1108 4.4747 15.3191 4.45395 15.2519L4.98097 15.5425C5.29602 15.7163 5.61902 15.8737 5.9486 16.0126ZM9.20419 14.065C7.85585 14.0201 6.79794 12.7884 6.83945 11.3102C6.88095 9.92161 7.91811 8.8018 9.20419 8.75698C10.5525 8.8018 11.6104 10.0336 11.5689 11.5118C11.5067 12.9004 10.4903 14.0202 9.20419 14.065ZM17.6674 14.065C16.3191 14.0201 15.2612 12.7884 15.3027 11.3102C15.3442 9.92161 16.3814 8.8018 17.6674 8.75698C19.0158 8.8018 20.0737 10.0336 20.0322 11.5118C19.9907 12.9004 18.9535 14.0202 17.6674 14.065Z" fill="white"/>
</svg>
