<svg width="28" height="28" viewBox="0 0 28 28" fill="none" xmlns="http://www.w3.org/2000/svg">
<path d="M2.65427 27.9858C1.96779 28.0262 1.29266 27.7953 0.771246 27.3419C-0.257082 26.2954 -0.257082 24.6052 0.771246 23.5588L23.2882 0.779661C24.3578 -0.2328 26.0361 -0.176518 27.0369 0.905479C27.9419 1.88392 27.9947 3.38782 27.1604 4.42864L4.51075 27.3419C3.99606 27.7888 3.33176 28.0192 2.65427 27.9858Z" fill="#EFAD26"/>
<path d="M25.1452 27.9855C24.4494 27.9825 23.7826 27.7031 23.2886 27.2075L0.77152 4.42827C-0.181172 3.3028 -0.051649 1.60904 1.06087 0.645169C2.05383 -0.215056 3.51824 -0.215056 4.51111 0.645169L27.1608 23.4243C28.2301 24.437 28.2854 26.1349 27.2843 27.2166C27.2444 27.2597 27.2033 27.3013 27.1608 27.3416C26.6062 27.8295 25.8763 28.0626 25.1452 27.9855Z" fill="#EFAD26"/>
</svg>
