<svg width="28" height="28" viewBox="0 0 28 28" fill="none" xmlns="http://www.w3.org/2000/svg">
<g clip-path="url(#clip0_27_446)">
<path d="M22.1392 5.18115C21.7645 5.18115 21.4595 5.48614 21.4595 5.86092C21.4595 6.23569 21.7645 6.54068 22.1392 6.54068C22.5141 6.54068 22.819 6.23575 22.819 5.86092C22.819 5.48609 22.5141 5.18115 22.1392 5.18115Z" fill="white"/>
<path d="M14 7.97363C10.6771 7.97363 7.97363 10.6771 7.97363 14C7.97363 17.3229 10.6771 20.0264 14 20.0264C17.323 20.0264 20.0264 17.323 20.0264 14C20.0264 10.6771 17.323 7.97363 14 7.97363Z" fill="white"/>
<path d="M20.3242 0H7.67577C3.44334 0 0 3.44334 0 7.67583V20.3242C0 24.5567 3.44334 28 7.67577 28H20.3242C24.5567 28 28 24.5567 28 20.3242V7.67583C28 3.44334 24.5567 0 20.3242 0ZM14 21.6799C9.76527 21.6799 6.32018 18.2347 6.32018 14C6.32018 9.76527 9.76533 6.32023 14 6.32023C18.2347 6.32023 21.6799 9.76533 21.6799 14C21.6799 18.2347 18.2347 21.6799 14 21.6799ZM22.1392 8.19416C20.8526 8.19416 19.8059 7.14744 19.8059 5.86086C19.8059 4.57428 20.8526 3.52751 22.1392 3.52751C23.4258 3.52751 24.4725 4.57423 24.4725 5.8608C24.4725 7.14738 23.4258 8.19416 22.1392 8.19416Z" fill="white"/>
</g>
<defs>
<clipPath id="clip0_27_446">
<rect width="28" height="28" fill="white"/>
</clipPath>
</defs>
</svg>
