<svg width="25" height="22" viewBox="0 0 25 22" fill="none" xmlns="http://www.w3.org/2000/svg">
<path d="M0.441574 10.5489L6.20208 12.722L8.43175 19.9694C8.57442 20.4336 9.136 20.6052 9.50875 20.2971L12.7198 17.6514C13.0563 17.3742 13.5358 17.3604 13.8875 17.6185L19.679 21.8683C20.0778 22.1612 20.6427 21.9404 20.7427 21.4534L24.9853 0.82706C25.0944 0.295085 24.5773 -0.148705 24.0761 0.047206L0.434824 9.26505C-0.148593 9.49247 -0.14351 10.3273 0.441574 10.5489ZM8.07242 11.5652L19.3306 4.55695C19.5329 4.43137 19.7411 4.70789 19.5673 4.87078L10.2761 13.6C9.9495 13.9073 9.73884 14.3185 9.67917 14.7648L9.36267 17.1354C9.32075 17.452 8.88083 17.4834 8.79442 17.1771L7.57717 12.8541C7.43775 12.3611 7.64092 11.8344 8.07242 11.5652Z" fill="white"/>
</svg>
